HIERARCHY
ROOT root
{
	OFFSET	0	13.1	24.9
	CHANNELS 6  Xposition Yposition Zposition Xrotation Yrotation Zrotation
	JOINT spine_1
	{
		OFFSET	0	9.99999	0
		CHANNELS 3  Xrotation Yrotation Zrotation
		JOINT spine_2
		{
			OFFSET	0	112	-10
			CHANNELS 3  Xrotation Yrotation Zrotation
			JOINT spine_3
			{
				OFFSET	0	206.5	19.3
				CHANNELS 3  Xrotation Yrotation Zrotation
				JOINT spine_4
				{
					OFFSET	0	110.4	14.6
					CHANNELS 3  Xrotation Yrotation Zrotation
					JOINT neck_1
					{
						OFFSET	0	71.8	-50.3
						CHANNELS 3  Xrotation Yrotation Zrotation
						JOINT neck_2
						{
							OFFSET	0	86.2	-25.8
							CHANNELS 3  Xrotation Yrotation Zrotation
							JOINT head_ee
							{
								OFFSET	0	179.8	-8.7
								CHANNELS 3  Xrotation Yrotation Zrotation
								End Site
								{
									OFFSET	1	0	0
								}
							}
						}
					}
					JOINT left_clavicle
					{
						OFFSET	-43.2	22.4	-70.8
						CHANNELS 3  Xrotation Yrotation Zrotation
						JOINT left_shoulder
						{
							OFFSET	-93.9	-5.79999	48.7
							CHANNELS 3  Xrotation Yrotation Zrotation
							JOINT left_elbow
							{
								OFFSET	-291.4	-30.8	15.2
								CHANNELS 3  Xrotation Yrotation Zrotation
								JOINT left_lowarm_twist
								{
									OFFSET	-110.7	-3.89999	13.6
									CHANNELS 3  Xrotation Yrotation Zrotation
									JOINT left_hand
									{
										OFFSET	-110.7	-3.89999	13.6
										CHANNELS 3  Xrotation Yrotation Zrotation
										JOINT left_ee
										{
											OFFSET	-80.8	-5.10001	12.1
											CHANNELS 3  Xrotation Yrotation Zrotation
											End Site
											{
												OFFSET	1	0	0
											}
										}
									}
								}
							}
						}
					}
					JOINT right_clavicle
					{
						OFFSET	43.2	22.4	-70.8
						CHANNELS 3  Xrotation Yrotation Zrotation
						JOINT right_shoulder
						{
							OFFSET	93.9	-5.79999	48.7
							CHANNELS 3  Xrotation Yrotation Zrotation
							JOINT right_elbow
							{
								OFFSET	291.4	-30.8	15.2
								CHANNELS 3  Xrotation Yrotation Zrotation
								JOINT right_lowarm_twist
								{
									OFFSET	110.7	-3.89999	13.6
									CHANNELS 3  Xrotation Yrotation Zrotation
									JOINT right_hand
									{
										OFFSET	110.7	-3.89999	13.6
										CHANNELS 3  Xrotation Yrotation Zrotation
										JOINT right_ee
										{
											OFFSET	80.8	-5.10001	12.1
											CHANNELS 3  Xrotation Yrotation Zrotation
											End Site
											{
												OFFSET	1	0	0
											}
										}
									}
								}
							}
						}
					}
				}
			}
		}
	}
	JOINT left_hip
	{
		OFFSET	-82.8	-127.5	0.300001
		CHANNELS 3  Xrotation Yrotation Zrotation
		JOINT left_knee
		{
			OFFSET	-28.2	-396.7	2.2
			CHANNELS 3  Xrotation Yrotation Zrotation
			JOINT left_ankle
			{
				OFFSET	-11.7	-411.3	35.4
				CHANNELS 3  Xrotation Yrotation Zrotation
				JOINT left_toes
				{
					OFFSET	0	-60	-88.6
					CHANNELS 3  Xrotation Yrotation Zrotation
					JOINT left_foot_ee
					{
						OFFSET	-22.5	-16.5	-42.2
						CHANNELS 3  Xrotation Yrotation Zrotation
						End Site
						{
							OFFSET	1	0	0
						}
					}
				}
			}
		}
	}
	JOINT right_hip
	{
		OFFSET	82.8	-127.5	0.300001
		CHANNELS 3  Xrotation Yrotation Zrotation
		JOINT right_knee
		{
			OFFSET	28.2	-396.7	2.2
			CHANNELS 3  Xrotation Yrotation Zrotation
			JOINT right_ankle
			{
				OFFSET	11.7	-411.3	35.4
				CHANNELS 3  Xrotation Yrotation Zrotation
				JOINT right_toes
				{
					OFFSET	0	-60	-88.6
					CHANNELS 3  Xrotation Yrotation Zrotation
					JOINT right_foot_ee
					{
						OFFSET	22.5	-16.5	-42.2
						CHANNELS 3  Xrotation Yrotation Zrotation
						End Site
						{
							OFFSET	1	0	0
						}
					}
				}
			}
		}
	}
}
MOTION
Frames: 5
Frame Time: 0.02
2360.43 719.063 -1524.52 3.68177 67.0718 -10.8355 -0.832551 1.18812 5.72791 -0.814685 0.821857 5.79161 -0.717088 -0.48698 5.8292 -0.764203 0.438134 5.83306 2.80263 7.65593 -22.7917 6.4225 32.5465 -26.2823 -0.0 0.0 -0.0 -6.72843 24.0258 -6.41014 -3.99111 -5.27123 69.1681 1.02531 -26.9257 0.245458 -29.9261 -1.94896 3.24739 0.973221 12.4325 11.3371 -0.0 0.0 -0.0 13.349 25.4787 -26.5465 -3.17368 49.6486 -59.8649 0.850963 22.8573 -0.17203 -69.1101 6.4325 -5.29338 -3.47582 -15.6016 15.2652 0.0 0.0 0.0 2.56552 25.507 3.59744 -33.8881 -0.124386 5.12417 29.6596 8.26618 -3.85411 -31.6002 0.0 0.0 -0.0 0.0 -0.0 9.09399 3.82306 1.25302 -17.4098 -0.317479 -2.64257 17.6286 17.5619 2.68065 20.0314 -0.0 -0.0 0.0 0.0 0.0 
2341.63 720.948 -1524.39 3.05935 66.7506 -9.88832 -0.700709 1.2484 5.6804 -0.683204 0.885021 5.74802 -0.580599 -0.401479 5.8017 -0.627163 0.518253 5.79247 2.90862 6.95356 -23.2442 6.52844 31.7541 -26.8707 -0.0 0.0 -0.0 -6.69808 24.8947 -6.09387 -6.54285 -3.4873 69.2499 0.927675 -24.6805 0.202952 -29.8644 -1.94327 3.24188 0.80101 13.8607 10.755 -0.0 0.0 -0.0 13.4478 25.2529 -26.8022 -1.64248 49.9358 -59.5329 0.904097 24.1255 -0.193211 -69.5609 6.49 -5.2981 -3.37866 -15.326 14.7993 0.0 0.0 0.0 8.02583 30.1615 -0.504768 -31.722 -0.0257348 4.80648 27.1605 7.18411 -3.57734 -31.9313 0.0 0.0 -0.0 0.0 -0.0 7.60536 1.59049 1.99496 -15.9734 -0.321853 -2.42223 20.3149 18.2492 3.06337 20.673 -0.0 -0.0 0.0 0.0 0.0 
2323.19 723.834 -1526.53 5.31169 64.8751 -11.9248 -0.764298 1.53427 5.60165 -0.747618 1.17531 5.68754 -0.616374 -0.107105 5.80634 -0.662475 0.809698 5.75079 2.02494 7.29214 -23.4038 5.59239 32.3433 -26.6786 -0.0 0.0 -0.0 -6.90849 25.3587 -6.23214 -9.71601 -1.52193 69.7627 0.818145 -22.0618 0.159492 -29.3308 -1.8944 3.19399 0.734527 14.7791 10.6683 -0.0 0.0 -0.0 13.5982 25.5408 -27.1194 -0.0568955 50.1003 -59.1548 0.959928 25.4316 -0.216612 -69.9363 6.5379 -5.30168 -3.35022 -15.0771 14.7584 0.0 0.0 0.0 12.7125 30.72 -1.97203 -30.6204 0.0198026 4.64357 26.4109 6.94533 -3.49259 -32.0775 0.0 0.0 -0.0 0.0 -0.0 4.6728 1.36035 2.74238 -16.3679 -0.321202 -2.48276 21.2679 18.1987 3.18911 20.3531 -0.0 -0.0 0.0 0.0 0.0 
2301.0 719.225 -1529.36 5.72401 66.7653 -12.6193 -0.488448 1.24445 5.64392 -0.471171 0.883392 5.71136 -0.370527 -0.373771 5.76699 -0.416499 0.540163 5.75384 -0.0942257 9.32445 -21.3114 2.88077 33.8433 -23.1444 -0.0 0.0 -0.0 -7.03905 24.2589 -6.76901 -12.4576 -0.595963 70.1808 0.793775 -21.4653 0.150456 -28.2049 -1.79276 3.09148 0.839126 15.8354 11.7104 -0.0 0.0 -0.0 13.6835 25.0425 -27.376 1.51659 50.3264 -59.234 1.0704 27.9337 -0.266229 -70.3911 6.59595 -5.3056 -3.61442 -16.9255 15.3777 0.0 0.0 0.0 14.1543 30.5534 -2.24071 -29.9456 0.0461469 4.54335 28.0413 6.80633 -3.67521 -31.5208 0.0 0.0 -0.0 0.0 -0.0 2.27369 4.50491 3.07362 -15.9799 -0.321846 -2.42324 21.1045 17.6618 3.15373 18.9245 -0.0 -0.0 0.0 0.0 0.0 
2286.66 714.317 -1529.39 4.30219 66.7864 -11.5274 -0.45255 1.27761 5.68663 -0.435034 0.913778 5.75609 -0.330581 -0.349591 5.81747 -0.377319 0.571973 5.79989 -1.20456 9.04606 -22.8062 1.87296 34.4024 -24.4481 -0.0 0.0 -0.0 -7.00076 24.6131 -6.60048 -13.2867 1.01105 70.4717 0.715787 -19.5235 0.123147 -28.6988 -1.8371 3.1367 0.685518 16.1186 10.8461 -0.0 0.0 -0.0 13.4826 24.83 -26.9309 3.55294 50.5602 -59.3622 1.18004 30.3076 -0.319598 -70.6238 6.62566 -5.30742 -3.68903 -16.1029 16.343 0.0 0.0 0.0 16.3482 30.2666 -3.92234 -28.8292 0.0871277 4.37692 26.203 5.69743 -3.46925 -31.5898 0.0 0.0 -0.0 0.0 -0.0 1.59691 0.802521 4.31445 -15.7131 -0.322054 -2.3823 24.4242 18.2793 3.59906 19.8593 -0.0 -0.0 0.0 0.0 0.0 
